:FULLY-SPECIFIED
:FORCE-ALL-JOINTS-BE-3DOF
:DEGREES
227
root 8.728 16.1414 -4.97094 10.4357 -4.16237 -7.5501
lfemur -49.0563 6.9531 -13.9905
ltibia 30.7404 0 0
lfoot -3.75881 10.981 0
ltoes -12.5155 0 0
rfemur 18.5697 7.04192 30.8478
rtibia -1.02484e-14 0 0
rfoot -9.47965 7.7066 0
rtoes -13.5933 0 0
lowerback -9.0348 2.86433 3.92949
upperback -1.65963 3.29309 3.69829
thorax 3.33817 1.66111 2.02342
lowerneck -16.3711 -5.92713 -13.7994
upperneck 15.4664 -7.66375 15.0194
head 8.66525 -3.04611 6.46965
lclavicle 1.39241e-14 -1.52696e-14 0
lhumerus -51.5833 -7.45206 93.131
lradius 23.3329 0 0
lwrist 1.46629 0 0
lhand -8.54544 -24.1095 0
lfingers 7.12502 0 0
lthumb 17.3843 5.13859 0
rclavicle 1.39241e-14 -1.52696e-14 0
rhumerus -41.3885 13.264 -87.2919
rradius 50.9314 0 0
rwrist -24.6596 0 0
rhand -31.8273 -31.9712 0
rfingers 7.12502 0 0
rthumb -5.08188 -61.8888 0
228
root 8.74432 16.1323 -4.86393 10.6083 -4.27393 -7.59558
lfemur -49.4747 7.53399 -14.3321
ltibia 31.569 0 0
lfoot -1.98996 10.8709 0
ltoes -13.3072 0 0
rfemur 18.7856 7.08332 30.7728
rtibia -1.50193e-14 0 0
rfoot -9.20475 7.76004 0
rtoes -13.7265 0 0
lowerback -9.14769 2.88368 3.97135
upperback -1.71506 3.3114 3.65314
thorax 3.34802 1.67034 1.95967
lowerneck -16.4575 -5.92013 -13.7697
upperneck 15.4903 -7.6628 15.0654
head 8.68987 -3.0362 6.48142
lclavicle 2.34463e-14 -9.04563e-15 0
lhumerus -51.6761 -7.47296 93.1305
lradius 23.3807 0 0
lwrist 2.0858 0 0
lhand -8.65835 -24.0184 0
lfingers 7.12502 0 0
lthumb 17.2754 5.23529 0
rclavicle 2.34463e-14 -9.04563e-15 0
rhumerus -41.5273 13.1919 -87.4604
rradius 50.7336 0 0
rwrist -24.5873 0 0
rhand -31.897 -32.0317 0
rfingers 7.12502 0 0
rthumb -5.14921 -61.9479 0
229
root 8.73313 16.1365 -4.93444 10.5977 -4.27223 -7.66441
lfemur -49.4055 7.42885 -14.1467
ltibia 31.1055 0 0
lfoot -2.06214 11.1303 0
ltoes -13.8593 0 0
rfemur 18.572 7.15394 30.9132
rtibia -1.27222e-14 0 0
rfoot -9.51988 7.79964 0
rtoes -13.5111 0 0
lowerback -9.14861 2.91597 4.04785
upperback -1.68464 3.34458 3.67824
thorax 3.38246 1.68759 1.94825
lowerneck -16.43 -5.92104 -13.7637
upperneck 15.4611 -7.66484 15.0611
head 8.67503 -3.03845 6.47781
lclavicle 2.56929e-14 -8.74653e-15 0
lhumerus -51.7119 -7.55329 93.2552
lradius 23.5084 0 0
lwrist 2.33574 0 0
lhand -8.83987 -24.1214 0
lfingers 7.12502 0 0
lthumb 17.1006 5.14601 0
rclavicle 2.56929e-14 -8.74653e-15 0
rhumerus -41.3402 13.2889 -87.421
rradius 50.8185 0 0
rwrist -24.6632 0 0
rhand -32.0752 -31.9954 0
rfingers 7.12502 0 0
rthumb -5.32131 -61.9086 0
230
root 8.77046 16.1252 -4.70387 10.6915 -4.30277 -7.47074
lfemur -49.7493 7.91986 -14.8091
ltibia 32.7039 0 0
lfoot -1.08425 10.4259 0
ltoes -12.9489 0 0
rfemur 19.1771 6.9622 30.4731
rtibia 0.0675652 0 0
rfoot -8.46598 7.67364 0
rtoes -14.1411 0 0
lowerback -9.17656 2.83576 3.84857
upperback -1.78789 3.26275 3.58007
thorax 3.28669 1.64503 1.94567
lowerneck -16.5581 -5.92315 -13.7779
upperneck 15.5429 -7.6663 15.1036
head 8.72874 -3.03059 6.49725
lclavicle 2.61113e-14 -4.792e-15 0
lhumerus -51.6254 -7.37197 92.9436
lradius 23.2037 0 0
lwrist 2.04376 0 0
lhand -8.5545 -23.9889 0
lfingers 7.12502 0 0
lthumb 17.3752 5.25367 0
rclavicle 2.61113e-14 -4.792e-15 0
rhumerus -41.8836 12.9679 -87.5764
rradius 50.475 0 0
rwrist -24.4636 0 0
rhand -31.6652 -31.9622 0
rfingers 7.12502 0 0
rthumb -4.92542 -61.8825 0
